<svg width="18" height="18" viewBox="0 0 18 18" fill="none" xmlns="http://www.w3.org/2000/svg">
<g id="emoji-smile-svgrepo-com 1">
<path id="Vector" d="M6.47222 8.27779C7.07053 8.27779 7.55556 7.79274 7.55556 7.19446C7.55556 6.59614 7.07053 6.11112 6.47222 6.11112C5.87391 6.11112 5.38889 6.59614 5.38889 7.19446C5.38889 7.79274 5.87391 8.27779 6.47222 8.27779Z" fill="#FFB214"/>
<path id="Vector_2" d="M12.6111 7.19446C12.6111 7.79274 12.1261 8.27779 11.5278 8.27779C10.9295 8.27779 10.4444 7.79274 10.4444 7.19446C10.4444 6.59614 10.9295 6.11112 11.5278 6.11112C12.1261 6.11112 12.6111 6.59614 12.6111 7.19446Z" fill="#FFB214"/>
<path id="Vector_3" d="M6.75299 10.1132C6.57205 9.7626 6.14224 9.62162 5.78829 9.79864C5.43152 9.97703 5.28691 10.4109 5.4653 10.7676C5.52485 10.8863 5.60069 10.9976 5.68019 11.1036C5.81222 11.2797 6.01152 11.5064 6.29204 11.7308C6.86226 12.187 7.74139 12.6113 9.00015 12.6113C10.2589 12.6113 11.1381 12.187 11.7083 11.7308C11.9888 11.5064 12.1881 11.2797 12.3201 11.1036C12.3999 10.9972 12.4725 10.8859 12.5346 10.7684C12.7113 10.4163 12.5643 9.97479 12.212 9.79864C11.8581 9.62162 11.4283 9.7626 11.2473 10.1132C11.2374 10.1312 11.1015 10.3665 10.8059 10.6029C10.4734 10.8689 9.90805 11.1668 9.00015 11.1668C8.09224 11.1668 7.52694 10.8689 7.19438 10.6029C6.89885 10.3665 6.76296 10.1312 6.75299 10.1132Z" fill="#FFB214"/>
<path id="Vector_4" fill-rule="evenodd" clip-rule="evenodd" d="M9 16.9445C13.3876 16.9445 16.9444 13.3876 16.9444 9.00001C16.9444 4.61242 13.3876 1.05556 9 1.05556C4.61241 1.05556 1.05556 4.61242 1.05556 9.00001C1.05556 13.3876 4.61241 16.9445 9 16.9445ZM9 15.4951C5.41287 15.4951 2.50493 12.5871 2.50493 9.00001C2.50493 5.41288 5.41287 2.50494 9 2.50494C12.5871 2.50494 15.4951 5.41288 15.4951 9.00001C15.4951 12.5871 12.5871 15.4951 9 15.4951Z" fill="#FFB214"/>
</g>
</svg>
